<svg width="1178" height="1178" viewBox="0 0 1178 1178" fill="none" xmlns="http://www.w3.org/2000/svg">
<path d="M806.27 474.668L984.344 554.032L1000.14 626.609L859.631 652.393L658.785 496.33L859.631 309.055L1000.14 392.526L859.631 435.776L806.27 474.668Z" fill="#152535"/>
<path d="M889.182 389.731L836.424 449.419C845.484 455.851 853.277 463.903 859.408 473.17L861.834 476.835L869.098 465.639C873.66 458.609 876.445 450.576 877.213 442.231C887.649 447.343 895.452 456.611 898.709 467.766L899.112 469.145L906.218 458.638C912.257 449.707 914.842 438.885 913.489 428.189L916.111 428.83C928.251 431.795 938.296 440.284 943.245 451.76L945.497 447.335C953.416 431.777 958.752 415.035 961.299 397.764L889.182 389.731Z" fill="#152535"/>
<path d="M870.636 551.226L817.879 491.538C826.939 485.106 834.731 477.054 840.863 467.788L843.288 464.123L850.553 475.319C855.114 482.349 857.899 490.382 858.668 498.726C869.104 493.615 876.906 484.346 880.164 473.192L880.567 471.812L887.672 482.319C893.712 491.25 896.296 502.073 894.943 512.768L897.566 512.128C909.706 509.162 919.751 500.673 924.699 489.198L926.951 493.623C934.87 509.181 940.207 525.922 942.753 543.193L870.636 551.226Z" fill="#152535"/>
<path d="M708.948 443.872L784.863 415.62V543.671L708.948 515.419V443.872Z" fill="#1D3043"/>
<ellipse cx="796.544" cy="479.646" rx="47.0886" ry="66.0953" fill="#273E55"/>
<ellipse cx="796.544" cy="479.646" rx="35.2089" ry="49.4204" fill="#527BA3"/>
<ellipse cx="791.868" cy="479.646" rx="9.9474" ry="13.9625" fill="#6E98C0"/>
<path d="M821.859 307.891L746.751 409.575C760.026 416.893 771.597 426.944 780.701 439.064L785.481 445.428V430.968C785.481 419.48 784.116 408.032 781.417 396.865C795.053 403.095 807.022 412.463 816.346 424.203L821.859 431.144L828.094 400.243L833.828 381.817C846.619 388.795 856.928 399.571 863.334 412.658L867.91 422.008L872.308 412.377C879.043 397.63 882.528 381.607 882.528 365.395L886.109 369.629C900.216 386.308 910.143 406.112 915.066 427.396L933.81 403.453L943.299 389.998C952.922 402.916 959.836 417.646 963.625 433.303L965.153 439.618L965.842 438.789C981.935 419.404 995.306 397.913 1005.58 374.91L821.859 307.891Z" fill="white"/>
<path d="M943.299 389.998L933.81 403.453L915.066 427.396C910.143 406.112 900.216 386.308 886.109 369.629L882.528 365.395C882.528 381.607 879.043 397.63 872.308 412.377L867.91 422.008L863.334 412.658C856.928 399.571 846.619 388.795 833.828 381.817L828.094 400.243L821.859 431.144L816.346 424.203C807.022 412.463 795.053 403.095 781.417 396.865C784.116 408.032 785.481 419.48 785.481 430.968V445.428L780.701 439.064C771.597 426.944 760.026 416.893 746.751 409.575L821.859 307.891L1005.58 374.91C995.306 397.913 981.935 419.404 965.842 438.789L965.153 439.618L963.625 433.303C959.836 417.646 952.922 402.916 943.299 389.998ZM943.299 389.998L954.561 370.285" stroke="#152535" stroke-width="7"/>
<path d="M724.739 580.709L752.537 541.791C764.558 535.896 774.972 527.176 782.887 516.377L784.294 514.457L784.791 523.612C785.525 537.122 784.807 550.672 782.651 564.03C795.001 555.605 805.518 544.77 813.571 532.175L816.601 527.437L820.131 562.613L820.179 586.732C833 572.704 844.946 557.527 855.602 541.791L863.759 574.234L868.826 603.874L879.66 580.709L891.423 551.262C900.869 567.387 908.506 584.506 914.192 602.307L914.693 603.874L927.761 571.902L935.54 543.335C943.684 553.01 949.621 564.314 952.971 576.458L949.338 559.63L968.417 543.335L948.223 534.558C953.956 530.361 958.906 525.19 962.847 519.279L966.905 513.193L969.063 521.01C971.089 528.349 970.863 536.126 968.417 543.335L970.282 541.372C976.007 535.347 980.689 528.412 984.136 520.85C985.782 540.839 982.655 560.932 975.013 579.475L971.067 589.05L987.895 625.186L846.124 648.815L724.739 580.709Z" fill="white"/>
<path d="M968.417 543.335L970.282 541.372C976.007 535.347 980.689 528.412 984.136 520.85C985.782 540.839 982.655 560.932 975.013 579.475L971.067 589.05M968.417 543.335L948.223 534.558C953.956 530.361 958.906 525.19 962.847 519.279L966.905 513.193L969.063 521.01C971.089 528.349 970.863 536.126 968.417 543.335ZM968.417 543.335L949.338 559.63L956.39 592.292M971.067 589.05L956.39 592.292M971.067 589.05L987.895 625.186L846.124 648.815L724.739 580.709L752.537 541.791C764.558 535.896 774.972 527.176 782.887 516.377L784.294 514.457L784.791 523.612C785.525 537.122 784.807 550.672 782.651 564.03C795.001 555.605 805.518 544.77 813.571 532.175L816.601 527.437L820.131 562.613L820.179 586.732C833 572.704 844.946 557.527 855.602 541.791L863.759 574.234L868.826 603.874L879.66 580.709L891.423 551.262C900.869 567.387 908.506 584.506 914.192 602.307L914.693 603.874L927.761 571.902L935.54 543.335C944.996 554.569 951.477 567.999 954.388 582.391L956.39 592.292" stroke="#152535" stroke-width="7"/>
<path d="M589.448 171.468L583.192 159.65C532.178 63.2694 430.038 5.07394 321.115 10.3282C369.271 81.9948 392.449 167.542 387.058 253.716L381.512 342.381L483.978 248.263L589.448 171.468Z" fill="#1661A4" stroke="#152535" stroke-width="20"/>
<path d="M622.559 153.151L583.75 166.791C475.1 204.981 389.366 289.981 350.243 398.299C330.156 453.911 323.202 513.415 329.924 572.16L337.234 636.048C341.07 669.571 350.475 702.219 365.063 732.645C391.138 787.029 432.842 832.4 484.842 862.953L499.891 871.796C522.006 884.789 545.444 895.385 569.808 903.402L641.633 927.035C657.02 932.098 667.657 946.171 668.33 962.356L669.516 990.872C670.528 1015.2 675.591 1039.19 684.496 1061.86C696.37 1092.07 714.815 1119.27 738.495 1141.48L752.71 1154.81V1086.22C752.71 1068.28 755.714 1050.47 761.597 1033.52L762.31 1031.47C769.902 1009.6 782.409 989.768 798.87 973.493L803.471 968.943C819.367 953.226 839.124 941.976 860.752 936.326C878.755 931.622 897.57 930.926 915.87 934.285L973.985 944.951L958.997 917.794C933.932 872.38 888.542 841.807 837.038 835.647C822.211 833.873 807.208 834.169 792.462 836.526L721.343 847.893C711.597 849.451 701.692 846.278 694.665 839.347L649.379 794.677C631.952 777.487 620.443 755.199 616.518 731.036C611.885 702.513 618.124 673.289 634.001 649.145L639.037 641.487L656.431 649.822C673.12 657.819 690.802 663.554 709.008 666.876L783.201 680.413C829.07 688.781 876.092 688.573 921.884 679.799L932.072 677.847C957.424 672.99 978.896 656.243 989.782 632.838L994.921 621.788C1003.03 604.36 1001.89 584.034 991.9 567.615L991.29 566.612C988.217 561.564 980.587 562.685 979.095 568.403C974.902 584.477 963.487 597.694 948.194 604.182L939.952 607.679C923.243 614.767 904.469 615.26 887.412 609.057L791.3 574.108C782.131 570.774 773.511 566.09 765.724 560.212C717.208 523.587 713.349 452.102 757.641 410.467L768.143 400.595C774.34 394.77 781.19 389.681 788.557 385.431L813.781 370.878C849.281 350.398 891.89 346.227 930.688 359.435C945.428 364.453 959.244 371.857 971.584 381.352L978.342 386.552C985.733 392.239 995.73 393.179 1004.05 388.969L1007.58 387.183C1059.25 361.045 1099.94 317.389 1122.38 264.014L1165.72 160.947C1173.69 141.992 1160.66 120.819 1140.15 119.391L1045.51 112.801C997.924 109.488 950.165 109.584 902.595 113.087L777.47 122.303L622.559 153.151Z" fill="#1661A4"/>
<path d="M1125.73 162.29C1140.53 158.867 1153.59 172.539 1149.5 187.166L1141.74 214.902C1129.43 258.893 1107.54 299.619 1077.66 334.166L1072.51 340.113C1066.33 347.259 1060.55 354.725 1055.19 362.475C1042.85 373.585 1029.46 383.613 1015.16 392.398L1009.48 395.893C997.63 403.174 982.517 402.382 971.496 393.902L965.486 389.278C954.014 380.451 941.169 373.566 927.466 368.901C891.396 356.622 851.783 360.5 818.779 379.541L782.578 400.426L777.541 403.505C718.388 439.666 720.47 526.029 780.738 559.474L782.173 560.254L782.702 560.536L783.194 560.88L794.762 568.955C818.041 585.206 844.576 596.202 872.527 601.178L895.826 605.325C907.549 607.412 919.58 607.005 931.135 604.132L957.893 597.477C965.44 595.6 971.759 590.456 975.128 583.446L975.848 581.95L976.068 581.51C980.76 572.546 993.329 571.714 999.162 579.98L999.37 580.286L998.073 591.757C993.237 634.5 967.732 670.349 932.212 689.794L928.329 690.702C880.21 701.959 830.22 702.636 781.814 692.685L702.057 676.29C686.319 673.055 671.036 667.909 656.547 660.967L642.592 654.28L642.356 654.64C627.855 676.691 622.157 703.382 626.389 729.433C629.973 751.502 640.485 771.858 656.402 787.558L701.687 832.227C706.449 836.924 713.162 839.075 719.766 838.019L742.795 834.338C742.825 852.266 746.662 870.641 754.942 888.442C719.828 888.442 685.126 880.88 653.196 866.268L625.9 853.777C589.913 837.309 559.106 811.329 536.8 778.638C512.165 742.533 498.986 699.838 498.986 656.13V642.979C498.986 596.657 511.363 551.176 534.837 511.242L548.303 488.335C569.381 452.476 595.024 419.505 624.59 390.247C659.545 355.656 699.602 326.633 743.361 304.192L874.934 236.719L985.206 194.795L1125.73 162.29Z" fill="white"/>
<path d="M585.646 161.274L580.392 163.268C473.545 203.81 389.725 288.985 350.903 396.47C330.383 453.285 323.278 514.076 330.145 574.092L337.234 636.048C341.07 669.572 350.475 702.219 365.063 732.645C391.138 787.03 432.842 832.4 484.842 862.953L499.891 871.796C522.006 884.79 545.444 895.385 569.808 903.402L641.633 927.035C657.02 932.098 667.657 946.171 668.33 962.356L669.516 990.872C670.528 1015.2 675.591 1039.19 684.496 1061.85C696.37 1092.07 714.815 1119.27 738.496 1141.48L752.71 1154.81V1086.22C752.71 1068.28 755.714 1050.47 761.597 1033.52L762.31 1031.47C769.902 1009.6 782.409 989.768 798.87 973.493L803.471 968.943C819.367 953.227 839.124 941.976 860.752 936.326C878.755 931.622 897.57 930.926 915.87 934.285L973.985 944.951L958.997 917.794C933.932 872.38 888.542 841.807 837.038 835.647C822.211 833.873 807.208 834.169 792.462 836.526L721.343 847.893C711.597 849.451 701.692 846.278 694.665 839.347L649.379 794.677C631.952 777.487 620.443 755.199 616.518 731.036C611.885 702.513 618.124 673.289 634.001 649.145L639.037 641.487L662.573 652.765C675.199 658.815 688.49 663.365 702.175 666.323L778.618 682.846C828.891 693.712 880.988 692.897 930.896 680.463L933.346 679.852C958.074 673.692 978.692 656.682 989.439 633.576L991.629 628.867C1001.83 606.939 1000.72 581.421 988.669 560.456L977.129 584.241C974.13 590.422 968.8 595.159 962.31 597.412C885.908 623.935 801.067 600.385 749.267 538.276L738.108 524.896C735.728 522.043 733.914 518.763 732.76 515.231L731.193 510.432C726.505 496.075 725.807 480.714 729.172 465.991L730.192 461.526C733.01 449.2 739.278 437.931 748.265 429.037L768.863 408.65C823.581 354.493 908.319 344.98 973.684 385.655L993.2 397.799L999.565 398.292C1012.1 399.262 1023.95 392.455 1029.43 381.137C1031.14 377.603 1033.51 374.431 1036.42 371.796L1058.9 351.443C1107.42 307.506 1141.6 249.987 1157 186.365L1167.23 144.101C1170.13 132.111 1161.61 120.373 1149.31 119.418L1055.04 112.094C1005.36 108.235 955.459 108.094 905.758 111.674L772.932 121.239L658.605 141.244C633.707 145.601 609.278 152.307 585.646 161.274Z" stroke="#152535" stroke-width="20"/>
<path d="M321.788 513.861L391.753 488.776L449.58 568.133C379.392 644.339 280.516 687.695 176.913 687.695H80.1651C67.1221 687.695 54.2052 685.143 42.1419 680.184L26.4225 673.721L115.241 616.131C179.918 574.194 249.228 539.876 321.788 513.861Z" fill="#1661A4"/>
<path d="M391.752 488.776C376.885 490.793 362.263 493.497 347.888 496.888C336.482 499.578 325.23 502.701 314.134 506.257C309.279 507.814 304.464 509.49 299.693 511.282C234.55 535.753 171.949 566.982 113.219 604.309C83.1751 623.401 53.1315 642.493 23.0878 661.585C21.0905 662.854 19.0933 664.123 17.096 665.393L-0.0187778 676.268L19.0286 683.226C27.8228 686.438 36.617 689.65 45.4111 692.862C53.8528 695.946 62.674 697.99 71.612 698.932C91.8379 701.065 112.064 703.198 132.29 705.332C141.626 706.317 151.037 706.59 160.414 706.147C166.131 705.878 171.847 705.608 177.564 705.339C255.468 701.783 332.119 675.068 395.367 629.452C405.449 622.203 414.797 613.935 423.23 604.803C433.451 593.739 442.324 581.405 449.58 568.133C436.949 576.455 424.734 584.606 412.795 592.791C402.942 599.545 393.275 606.322 383.69 613.215C323.56 656.582 250.687 681.981 176.622 685.361C170.906 685.63 165.189 685.9 159.472 686.169C151.108 686.564 142.715 686.321 134.388 685.442C114.162 683.309 93.9358 681.175 73.7099 679.042C66.397 678.271 59.1796 676.599 52.2728 674.076C43.4786 670.864 34.6845 667.652 25.8903 664.44L27.8228 682.273C29.8201 681.003 31.8173 679.734 33.8146 678.465C63.8582 659.373 93.9019 640.281 123.946 621.189C181.513 584.602 242.874 553.99 306.727 530.004C311.404 528.247 316.064 526.445 320.71 524.596C331.537 520.291 342.209 515.553 352.727 510.384C365.981 503.868 378.99 496.665 391.752 488.776Z" fill="#152535"/>
<path d="M828.721 156.88L820.739 149.042C780.864 109.892 716.718 110.76 677.918 150.976C662.745 163.81 671.82 188.594 691.694 188.594H817.567C834.396 188.594 841.845 167.414 828.721 156.88Z" fill="#1661A4"/>
<path d="M632.111 183.817C636.193 181.463 640.222 179.052 644.199 176.584C651.054 172.329 657.753 167.903 664.296 163.306C678.321 153.563 692.747 145.261 707.718 138.124C711.628 136.262 715.609 134.551 719.651 132.996C737.183 126.199 757.159 125.998 774.824 132.44C775.24 132.591 775.656 132.741 776.071 132.892C779.547 134.148 782.982 135.515 786.37 136.989C803.55 144.471 820.074 153.488 836.063 164.354C842.2 168.568 848.456 172.648 854.833 176.594C858.807 179.053 862.828 181.461 866.895 183.817C864.117 180.025 861.292 176.286 858.42 172.599C853.812 166.683 849.084 160.9 844.236 155.251C830.749 139.638 813.507 126.965 794.348 118.649C790.572 117.006 786.745 115.484 782.873 114.083C782.457 113.933 782.041 113.783 781.625 113.632C759.483 105.557 734.447 105.81 712.472 114.329C707.949 116.069 703.493 117.983 699.117 120.068C682.351 128.04 667.303 139.59 655.397 153.579C650.238 159.688 645.235 165.968 640.388 172.419C637.577 176.161 634.818 179.96 632.111 183.817Z" fill="#152535"/>
<path d="M752.402 185.862L757.954 185.478C767.074 184.847 776.183 186.852 784.195 191.253L792.343 195.728C797.665 198.652 802.633 202.176 807.151 206.233L814.999 213.281C818.292 216.237 821.072 219.718 823.228 223.582L824.479 225.825C828.414 232.877 829.65 241.119 827.958 249.015C826.173 257.347 821.26 264.677 814.231 269.494L811.208 271.567C804.136 276.414 795.764 279.009 787.19 279.009H774.08C762.372 279.009 750.939 275.466 741.282 268.847L739.849 267.864C734.198 263.991 729.409 258.991 725.783 253.178C720.496 244.702 717.885 234.83 718.293 224.848L718.459 220.778C718.727 214.207 720.766 207.831 724.359 202.324C730.61 192.745 740.991 186.651 752.402 185.862Z" fill="white"/>
<ellipse cx="773.611" cy="235.623" rx="32.6201" ry="47.029" fill="#152535"/>
<path d="M781.375 280.268L774.72 280.578C750.773 281.694 728.797 266.973 720.523 244.463C713.609 225.65 717.547 204.428 730.854 189.455C734.977 184.815 740.888 182.161 747.098 182.161L753.49 182.161C760.1 182.161 766.583 183.981 772.228 187.422L805.141 207.483C807.578 208.968 809.847 210.713 811.909 212.686L820.017 220.447C834.604 234.408 832.092 258.377 814.93 268.989L812.035 270.779C802.789 276.496 792.237 279.762 781.375 280.268Z" stroke="#152535" stroke-width="15"/>
<path d="M652.641 236.87C656.585 232.555 660.469 228.202 664.292 223.809C667.065 220.624 669.806 217.418 672.516 214.192C676.174 209.905 680.24 206.102 684.598 202.825C701.433 190.129 722.518 185.561 741.974 189.257C742.446 189.346 742.918 189.434 743.391 189.521C747.071 190.203 750.751 190.884 754.432 191.566C770.025 194.434 784.8 201.609 796.701 212.091C811.312 224.928 825.922 237.766 840.533 250.603C846.175 255.566 852.785 259.429 859.878 261.907C869.893 265.434 880.976 265.818 891.069 263.051C907.66 258.681 920.984 245.591 925.593 230.59C926.515 227.684 927.136 224.724 927.458 221.773C927.763 218.759 928.034 215.734 928.273 212.699C926.731 215.323 925.222 217.958 923.747 220.603C922.388 222.993 920.869 225.225 919.22 227.289C910.724 237.92 898.961 243.904 887.34 245.285C880.201 246.15 873.075 245.339 866.472 243.028C861.796 241.394 857.447 238.853 853.726 235.58C839.115 222.743 824.505 209.905 809.894 197.068C795.299 184.214 777.182 175.416 758.06 171.899C754.379 171.217 750.699 170.536 747.019 169.854C746.546 169.767 746.074 169.68 745.601 169.593C719.89 164.646 692.202 174.415 675.753 193.426C671.457 198.294 667.864 203.693 665.085 209.398C663.266 213.199 661.478 217.02 659.722 220.862C657.302 226.159 654.941 231.495 652.641 236.87Z" fill="#152535"/>
<path d="M761.009 287.07C762.185 282.9 763.361 278.73 764.538 274.56C763.356 274.226 762.175 273.892 760.993 273.558C759.821 273.226 758.649 272.895 757.477 272.563C755.744 272.073 754.008 271.597 752.268 271.135L752.19 271.114C749.505 270.436 746.81 269.792 744.107 269.18L743.316 269.021C739.799 268.694 736.275 268.421 732.743 268.203C726.447 267.754 720.131 268.767 714.462 271.061C709.585 273.167 704.135 274.408 698.407 274.527C696.987 274.548 695.566 274.577 694.143 274.615C692.895 274.649 691.647 274.689 690.397 274.735C691.572 275.164 692.748 275.586 693.926 276.002C695.268 276.476 696.612 276.941 697.957 277.398C703.779 279.345 710.27 279.882 716.646 278.817C721.629 278.112 726.58 278.331 731.254 279.359C734.719 280.08 738.191 280.745 741.67 281.356L740.879 281.197C743.524 282.026 746.178 282.821 748.84 283.584L748.763 283.563C750.487 284.08 752.216 284.584 753.948 285.074C755.12 285.405 756.293 285.737 757.465 286.068C758.646 286.402 759.828 286.736 761.009 287.07Z" fill="#152535"/>
<path d="M790.794 478.197C792.955 479.345 795.117 480.493 797.278 481.641C801.742 473.821 806.207 466 810.671 458.18L802.48 457.598C805.81 467.774 809.141 477.95 812.471 488.126C815.079 496.096 817.687 504.066 820.295 512.035L825.817 528.157L832.007 512.057C845.713 477.818 859.419 443.579 873.125 409.34L854.852 408.521C867.78 463.623 880.707 518.726 893.634 573.829L903.74 614.276L921.371 575.978C946.732 522.918 972.092 469.858 997.453 416.798L959.895 414.746C981.501 491.047 1003.11 567.347 1024.71 643.647L1054.28 740.708L1077.44 641.326C1105.72 530.016 1133.99 418.706 1162.26 307.396C1167.11 288.29 1171.96 269.185 1176.81 250.079C1179.4 239.901 1177.79 229.23 1172.14 220.374C1166.51 211.52 1157.31 205.207 1146.74 202.863C1136.18 200.519 1125.17 202.348 1116.32 207.988C1107.46 213.625 1101.49 222.612 1099.53 232.931C1099.53 232.931 1099.53 232.931 1099.53 232.931C1095.84 252.295 1092.16 271.66 1088.48 291.025C1067.02 403.846 1045.55 516.667 1024.09 629.488L1076.82 627.167C1050.62 552.319 1024.43 477.471 998.227 402.622L981.17 351.806L960.669 400.57C938.576 455.072 916.483 509.573 894.39 564.075L922.127 566.224C905.879 512.008 889.631 457.792 873.384 403.575L865.109 374.192L855.111 402.756C843.508 437.764 831.906 472.772 820.303 507.78L832.015 507.802C828.928 500.005 825.841 492.209 822.754 484.412C818.812 474.457 814.87 464.502 810.929 454.547L807.254 445.011L802.738 453.965C798.757 462.042 794.775 470.12 790.794 478.197Z" fill="#0087FF"/>
<path d="M372.062 112.121L381.172 149.889C389.453 142.988 399.031 137.617 409.226 134.113C414.432 132.323 414.81 125.027 409.753 122.849L406.865 121.605C401.01 119.084 394.928 117.128 388.702 115.765L372.062 112.121Z" fill="#152535"/>
<path d="M627.292 647.004C631.369 641.729 635.445 636.454 639.522 631.179C638.167 630.132 636.812 629.085 635.458 628.038C635.375 627.974 635.293 627.911 635.211 627.847C630.635 624.31 626.137 620.672 621.723 616.935C605.787 603.44 589.507 590.347 572.389 577.047C569.681 574.935 566.932 572.857 564.141 570.814C562.722 569.775 561.292 568.745 559.852 567.724C560.637 569.305 561.434 570.877 562.241 572.44C563.827 575.513 565.454 578.551 567.122 581.554C577.853 600.806 592.04 618.02 608.801 632.201C613.442 636.129 618.17 639.954 622.981 643.672C623.063 643.735 623.145 643.799 623.228 643.862C624.582 644.909 625.937 645.957 627.292 647.004Z" fill="#152535"/>
<path d="M826.366 332.491C821.993 333.389 817.826 334.57 813.868 336.032C808.732 337.929 803.946 340.299 799.508 343.144C798.179 344 796.89 344.909 795.641 345.869C746.72 383.184 714.195 441.054 707.725 502.241C706.962 509.199 707.497 516.285 709.333 523.225C710.433 527.383 711.999 531.48 714.024 535.468C715.744 531.339 717.227 527.333 718.467 523.383C720.537 516.789 721.925 510.375 722.635 503.874C728.68 446.706 759.074 392.624 804.785 357.76C805.952 356.863 807.099 355.938 808.229 354.982C812.261 351.588 815.945 347.72 819.279 343.377C821.849 340.03 824.211 336.401 826.366 332.491Z" fill="#152535"/>
<path d="M601.619 288.461C600.148 289.874 598.691 291.296 597.247 292.727C595.719 294.247 594.228 295.801 592.775 297.387C578.574 312.866 567.894 331.833 561.945 352.205C552.255 385.188 550.486 420.451 556.817 454.235C560.624 474.725 569.153 494.318 581.456 510.889C583.963 514.272 586.612 517.515 589.414 520.643C588.075 516.663 586.813 512.724 585.601 508.784C579.674 489.469 575.132 470.562 571.562 451.483C565.664 420.01 567.313 387.148 576.339 356.423C581.905 337.457 588.509 318.785 596.621 299.882C597.452 297.946 598.302 296.005 599.171 294.058C600.001 292.201 600.817 290.336 601.619 288.461Z" fill="#152535"/>
<path d="M554.381 312.423C554.381 312.423 554.381 312.423 554.381 312.423C553.217 313.579 552.066 314.743 550.928 315.916C549.723 317.162 548.551 318.437 547.411 319.738C536.275 332.439 528.233 348.026 524.272 364.609C517.81 391.458 517.794 419.821 524.218 446.675C528.087 462.965 535.937 478.29 546.827 490.816C549.045 493.374 551.379 495.806 553.833 498.127C552.703 494.943 551.631 491.8 550.593 488.663C545.52 473.284 541.419 458.412 537.836 443.428C531.922 418.708 531.937 392.589 537.885 367.874C541.554 352.621 545.81 337.497 551.112 321.886C551.656 320.288 552.212 318.682 552.783 317.067C553.329 315.527 553.861 313.979 554.381 312.423Z" fill="#152535"/>
<path d="M511.426 337.102C511.426 337.102 511.426 337.102 511.426 337.102C509.686 339.152 507.996 341.226 506.357 343.324C505.289 344.69 504.243 346.066 503.218 347.453C496.267 356.912 491.316 367.901 488.807 379.43C484.108 400.893 484.265 423.399 489.256 444.796C492.264 457.775 498.429 470.007 507.047 480.061C508.801 482.111 510.652 484.068 512.597 485.935C512.597 485.935 512.597 485.935 512.597 485.935C511.804 483.358 511.048 480.814 510.314 478.285C506.723 465.88 503.725 454 500.944 442.077C496.356 422.409 496.212 401.716 500.531 381.989C502.847 371.396 505.375 360.846 508.34 349.947C508.8 348.285 509.238 346.612 509.655 344.93C510.295 342.345 510.885 339.736 511.426 337.102Z" fill="#152535"/>
<path d="M752.132 200.45C758.099 201.714 762.128 208.265 760.608 215.443C759.088 222.62 752.748 226.975 746.781 225.711C740.813 224.447 736.783 217.896 738.303 210.718C739.824 203.54 746.164 199.185 752.132 200.45Z" fill="white" stroke="#152535" stroke-width="4"/>
<path d="M1020.42 376.773C1025.09 378.567 1029.75 380.361 1034.42 382.155C1035.56 379.075 1036.31 375.856 1036.64 372.593C1038.31 357.708 1030.49 342.411 1017.61 335.168C1010.29 330.977 1002.96 326.809 995.596 322.695C994.152 321.883 992.678 321.127 991.18 320.428C989.216 319.513 987.206 318.704 985.163 318.004C982.74 317.185 980.311 316.382 977.877 315.594C959.51 309.596 940.07 307.895 921.361 309.48C918.688 309.706 916.015 309.928 913.342 310.141C910.688 310.353 908.033 310.557 905.379 310.751C908.033 310.944 910.688 311.148 913.342 311.36C916.015 311.574 918.688 311.795 921.361 312.021C939.81 313.592 957.514 318.784 973.828 326.129C976.164 327.174 978.505 328.204 980.853 329.218C982.48 329.93 984.074 330.708 985.63 331.549C986.818 332.191 987.982 332.874 989.119 333.596C996.253 338.095 1003.42 342.54 1010.6 346.962C1018.72 351.883 1023.33 361.722 1022 370.909C1021.72 372.922 1021.19 374.891 1020.42 376.773Z" fill="#152535"/>
<path d="M1041.44 333.841C1041.44 333.841 1041.44 333.841 1041.44 333.841C1040.94 332.658 1040.39 331.491 1039.81 330.339C1034.58 319.938 1026.14 310.96 1015.92 304.965C1005.92 299.052 994.228 296.039 982.803 296.392C982.634 296.397 982.466 296.402 982.297 296.408C981.018 296.451 979.737 296.508 978.453 296.579C978.453 296.579 978.453 296.579 978.453 296.579C979.648 297.052 980.846 297.511 982.046 297.957C982.204 298.015 982.362 298.074 982.52 298.132C993.035 302.036 1002.6 306.699 1011.74 312.068C1021.05 317.557 1029.92 323.802 1038.58 331.297C1039.54 332.129 1040.49 332.976 1041.44 333.841Z" fill="#152535"/>
<path d="M997.31 600.87C996.57 600.689 995.831 600.507 995.091 600.326C992.11 605.464 989.359 610.658 986.838 615.909C985.889 617.883 984.974 619.866 984.09 621.856C980.299 629.778 974.993 636.161 968.795 641.121C967.336 642.286 965.825 643.372 964.262 644.379C960.795 646.615 956.968 648.29 952.974 649.321C948.532 650.468 944.09 651.615 939.648 652.762L940.988 652.512C940.185 652.606 939.382 652.699 938.579 652.793C933.574 653.378 928.571 653.974 923.569 654.583C896.881 657.839 869.688 657.149 843.029 652.478C839.885 651.924 836.739 651.375 833.593 650.831C813.346 647.362 793.494 640.828 774.877 631.393C757.475 622.58 741.155 611.236 726.574 597.663C722.808 594.158 719.158 590.506 715.633 586.713C715.267 586.319 714.901 585.925 714.535 585.531C714.834 585.978 715.133 586.425 715.432 586.872C718.316 591.18 721.386 595.381 724.633 599.459C737.199 615.25 752.445 629.174 769.639 640.422C788.026 652.467 808.636 661.436 830.273 666.711C833.374 667.473 836.476 668.23 839.579 668.982C867.647 675.766 897.033 677.619 925.88 674.375C930.888 673.815 935.894 673.243 940.899 672.658C941.702 672.564 942.505 672.471 943.308 672.377L944.648 672.127C949.09 670.98 953.532 669.833 957.974 668.685C964.033 667.122 969.838 664.582 975.097 661.191C977.467 659.663 979.705 657.931 981.775 656.022C990.629 647.917 996.177 636.491 997.099 625.047C997.237 622.874 997.343 620.693 997.416 618.504C997.61 612.682 997.575 606.804 997.31 600.87Z" fill="#152535"/>
</svg>
